<!-- Generator: Adobe Illustrator 19.1.0, SVG Export Plug-In  -->
<svg version="1.1"
	 xmlns="http://www.w3.org/2000/svg" xmlns:xlink="http://www.w3.org/1999/xlink" xmlns:a="http://ns.adobe.com/AdobeSVGViewerExtensions/3.0/"
	 x="0px" y="0px" width="41.9px" height="37.9px" viewBox="0 0 41.9 37.9" enable-background="new 0 0 41.9 37.9"
	 xml:space="preserve">
<defs>
</defs>
<path fill="#3DCD58" d="M6.8,22.2l0.5,0.3c0.9-1,1.9-1.5,4.1-1.5c3.4,0,7.4,2.7,7.4,8.2c0,4.6-3.8,8.7-8.5,8.7
	C3.8,37.9,0,32.3,0,24.6C0,15,4.8,5.5,15,0.1c0.3-0.2,0.7-0.1,1,0.1l3.9,3.4c0.5,0.4,0.4,1.2-0.2,1.5C11.9,8.5,7,16.1,6.8,22.2z
	 M33.1,21c-2.2,0-3.2,0.5-4.1,1.5l-0.5-0.3c0.2-6.2,5.1-13.7,12.9-17.1c0.6-0.3,0.7-1.1,0.2-1.5l-3.9-3.4c-0.3-0.2-0.7-0.3-1-0.1
	c-10.2,5.4-15,14.9-15,24.5c0,7.7,3.8,13.3,10.3,13.3c4.8,0,8.5-4.1,8.5-8.7C40.5,23.8,36.5,21,33.1,21z"/>
</svg>
