<?xml version="1.0" encoding="utf-8"?>
<!-- Generator: Adobe Illustrator 19.1.0, SVG Export Plug-In . SVG Version: 6.00 Build 0)  -->
<svg version="1.1" id="Capa_1" xmlns="http://www.w3.org/2000/svg" xmlns:xlink="http://www.w3.org/1999/xlink" x="0px" y="0px"
	 width="109.6px" height="22.7px" viewBox="0 0 109.6 22.7" enable-background="new 0 0 109.6 22.7" xml:space="preserve">
<g>
	<g>
		<path fill="#FFFFFF" d="M4.3,14.2H0.7V8c0-0.2,0-0.6-0.4-0.6C0,7.5,0,7.8,0,8v6.2c0,0.5,0.1,0.6,0.6,0.6h3.6c0.2,0,0.5,0,0.5-0.3
			C4.8,14.2,4.5,14.2,4.3,14.2z"/>
		<path fill="#FFFFFF" d="M5.8,9.4c-0.3,0-0.3,0.3-0.3,0.5v4.4c0,0.2,0,0.5,0.3,0.5c0.3,0,0.3-0.3,0.3-0.5V10
			C6.2,9.8,6.2,9.4,5.8,9.4z"/>
		<path fill="#FFFFFF" d="M5.8,7.7c-0.2,0-0.4,0.2-0.4,0.4c0,0.2,0.2,0.4,0.4,0.4c0.2,0,0.4-0.2,0.4-0.4C6.2,7.8,6.1,7.7,5.8,7.7z"
			/>
		<path fill="#FFFFFF" d="M9.1,9.6H8.4V9.1C8.4,8.5,8.5,8,9.3,8c0,0,0.1,0,0.2,0c0.1,0,0.2,0,0.2,0c0.2,0,0.3-0.1,0.3-0.3
			c0,0,0-0.2-0.2-0.2C9.8,7.5,9.4,7.5,9.1,7.5c-0.2,0-0.5,0.1-0.7,0.2C8.2,7.7,8,7.9,7.9,8C7.8,8.2,7.7,8.4,7.7,9v0.5H7.2
			c-0.1,0-0.4,0-0.4,0.2C6.7,10,7,10,7.2,10h0.6v4.4c0,0.2,0,0.5,0.3,0.5c0.3,0,0.3-0.3,0.3-0.5V10h0.7c0.3,0,0.4-0.1,0.4-0.2
			C9.6,9.6,9.3,9.6,9.1,9.6z M8.5,8.4C8.5,8.4,8.5,8.4,8.5,8.4C8.5,8.4,8.5,8.4,8.5,8.4z"/>
		<path fill="#FFFFFF" d="M14.6,11.8c0,0,0-0.6-0.3-1.2c-0.2-0.3-0.4-0.6-0.7-0.8c0,0-0.1,0-0.1-0.1c0,0,0,0-0.1,0
			c-0.1,0-0.2-0.1-0.2-0.1c0,0,0,0-0.1,0c-0.1,0-0.2-0.1-0.3-0.1c0,0,0,0-0.1,0c-0.1,0-0.2,0-0.3,0c0,0,0,0,0,0c-0.1,0-0.1,0-0.2,0
			c-0.8,0-1.5,0.3-1.9,0.7c-0.4,0.5-0.7,1.2-0.7,2c0,0.8,0.2,1.5,0.6,1.9c0.2,0.3,0.5,0.4,0.8,0.6c0.3,0.1,0.7,0.2,1.1,0.2
			c1,0,1.6-0.4,1.9-0.7c0.4-0.4,0.5-0.8,0.5-0.8c0-0.1-0.1-0.3-0.3-0.3c-0.1,0-0.3,0.1-0.3,0.2c-0.2,0.5-0.5,0.8-0.9,1
			c-0.2,0.1-0.5,0.2-0.8,0.2c-0.6,0-1.1-0.2-1.4-0.6c-0.3-0.4-0.5-0.9-0.5-1.5h3.7C14.3,12.2,14.6,12.2,14.6,11.8z M10.3,11.7
			c0.1-0.7,0.6-1.8,1.8-1.8c1.6,0,1.7,1.3,1.8,1.8H10.3z"/>
		<path fill="#FFFFFF" d="M18,7.5c-0.4,0-0.4,0.3-0.4,0.6v6.3c0,0.2,0,0.6,0.4,0.6c0.4,0,0.4-0.3,0.4-0.6V8
			C18.4,7.8,18.4,7.5,18,7.5z"/>
		<path fill="#FFFFFF" d="M30.3,11.3c0.2,0,0.4-0.2,0.4-0.4V6.6h-0.8v4.3C29.9,11.1,30,11.3,30.3,11.3z"/>
		<path fill="#FFFFFF" d="M23.2,12.2c0,0-0.1,0-0.1-0.1c0,0,0,0,0,0c-0.4-0.2-0.8-0.3-1.2-0.4c-0.4-0.1-0.8-0.2-1.1-0.3
			c-0.3-0.2-0.5-0.4-0.5-0.6c0-0.6,0.7-0.8,1.4-0.8c0.7,0,1.2,0.3,1.4,0.7c0.1,0.3,0.2,0.3,0.3,0.3c0.3,0,0.3-0.3,0.3-0.3
			c0-0.1-0.1-0.4-0.3-0.7c-0.2-0.2-0.4-0.3-0.6-0.4c-0.3-0.1-0.7-0.2-1.1-0.2c-0.8,0-1.3,0.2-1.7,0.6c-0.3,0.4-0.3,0.8-0.3,0.9
			c0,0.4,0.2,0.7,0.5,1c0.3,0.2,0.7,0.3,1.4,0.5c0.2,0,0.4,0.1,0.6,0.2l0,0c0.4,0.1,1.1,0.3,1.1,0.9c0,0.5-0.5,1-1.5,1
			c-0.8,0-1.3-0.3-1.5-0.9l0,0c-0.1-0.2-0.1-0.3-0.3-0.3c-0.1,0-0.2,0-0.2,0.1c-0.1,0.1-0.1,0.1-0.1,0.2c0,0.3,0.2,0.7,0.6,1
			c0.2,0.1,0.3,0.2,0.6,0.3c0.3,0.1,0.6,0.1,1,0.1c0.9,0,1.5-0.2,1.9-0.6c0.3-0.4,0.4-0.8,0.4-1C23.8,12.8,23.6,12.4,23.2,12.2z"/>
		<path fill="#FFFFFF" d="M39,10c-0.2-0.3-0.7-0.6-1.5-0.6c-1.1,0-1.5,0.5-1.8,0.9V9.9c0-0.1,0-0.3-0.1-0.4c0,0,0,0,0,0c0,0,0,0,0,0
			c0,0-0.1,0-0.2,0C35,9.4,35,9.7,35,9.9v4.4c0,0.2,0,0.5,0.3,0.5c0.1,0,0.1,0,0.2,0c0,0,0,0,0,0c0,0,0,0,0,0
			c0.1-0.1,0.1-0.3,0.1-0.4v-1.9c0-0.8,0-1.3,0.2-1.6c0.1-0.3,0.4-0.5,0.7-0.7c0.3-0.2,0.6-0.2,0.9-0.2c0.5,0,0.9,0.2,1.1,0.5
			c0.2,0.3,0.2,0.7,0.2,1.1v2.9c0,0.1,0,0.3,0.1,0.4c0,0,0,0,0,0c0,0,0,0,0,0c0,0,0.1,0,0.2,0c0.3,0,0.3-0.3,0.3-0.5v-3
			C39.4,11.1,39.4,10.4,39,10z"/>
		<path fill="#FFFFFF" d="M31.3,7.4v0.7c1.2,0.4,2.1,1.6,2.1,3c0,1.7-1.4,3.2-3.2,3.2s-3.2-1.4-3.2-3.2c0-1.4,0.9-2.5,2.1-3V7.4
			c-1.6,0.5-2.8,2-2.8,3.7c0,2.1,1.7,3.9,3.9,3.9s3.9-1.7,3.9-3.9C34.2,9.3,33,7.8,31.3,7.4z"/>
	</g>
	<g>
		<path fill="#FFFFFF" d="M59.5,8.2c-1.3-0.6-2.1-0.8-2.8-0.8c-0.8,0-1.3,0.3-1.3,0.7c0,1.3,4.5,1,4.5,4.1c0,1.7-1.4,2.7-3.4,2.7
			c-1.6,0-2.3-0.4-3.2-0.9v-1.9c1.3,0.8,2.1,1.1,3,1.1c0.9,0,1.3-0.3,1.3-0.8c0-1.5-4.5-0.9-4.5-4.1c0-1.5,1.3-2.6,3.4-2.6
			c1,0,1.9,0.2,3,0.7V8.2"/>
		<path fill="#FFFFFF" d="M65.9,14.5c-0.8,0.3-1.4,0.4-2,0.4c-2.1,0-3.5-1.2-3.5-3.1c0-1.8,1.4-3.1,3.4-3.1c0.6,0,1.4,0.2,2,0.4v1.4
			c-0.5-0.3-1.1-0.4-1.5-0.4c-1.1,0-1.9,0.7-1.9,1.7c0,1.1,0.7,1.8,1.8,1.8c0.5,0,0.9-0.1,1.7-0.4V14.5"/>
		<path fill="#FFFFFF" d="M83.6,8.6c-1.9,0-3.2,1.3-3.2,3.2c0,1.9,1.4,3.1,3.5,3.1c0.5,0,1.6,0,2.7-0.8v-1.2
			c-0.9,0.6-1.5,0.8-2.2,0.8c-1.2,0-1.9-0.6-2-1.7h4.3C86.8,9.9,85.4,8.6,83.6,8.6 M82.4,11.1c0.1-0.8,0.6-1.3,1.3-1.3
			c0.7,0,1.2,0.5,1.3,1.3H82.4z"/>
		<rect x="87.4" y="8.7" fill="#FFFFFF" width="1.9" height="6"/>
		<path fill="#FFFFFF" d="M94.6,5.9V9c-0.5-0.2-1-0.4-1.6-0.4c-1.7,0-2.9,1.3-2.9,3.1c0,1.8,1.2,3.1,2.8,3.1c0.6,0,1.1-0.2,1.7-0.6
			v0.5h1.9V5.9H94.6 M94.6,13.1c-0.4,0.4-0.7,0.5-1.1,0.5c-0.9,0-1.5-0.7-1.5-1.8c0-1.2,0.6-1.9,1.5-1.9c0.3,0,0.8,0.2,1.1,0.4V13.1
			z"/>
		<path fill="#FFFFFF" d="M100.5,8.6c-1.9,0-3.2,1.3-3.2,3.2c0,1.9,1.4,3.1,3.5,3.1c0.5,0,1.6,0,2.7-0.8v-1.2
			c-0.9,0.6-1.5,0.8-2.2,0.8c-1.2,0-1.9-0.6-2-1.7h4.3C103.7,9.9,102.2,8.6,100.5,8.6 M99.3,11.1c0.1-0.8,0.6-1.3,1.3-1.3
			c0.7,0,1.2,0.5,1.3,1.3H99.3z"/>
		<path fill="#FFFFFF" d="M106.4,10.5L106.4,10.5c0.6-1.3,1.2-1.8,1.9-1.8c0.4,0,0.7,0.1,1.3,0.6l-0.5,1.7c-0.5-0.3-0.8-0.4-1.1-0.4
			c-0.7,0-1.1,0.7-1.6,1.8v2.6h-1.9v-6h1.9V10.5"/>
		<path fill="#FFFFFF" d="M89.4,6.2c0.2,0.5-0.1,1.1-0.7,1.5c-0.6,0.3-1.2,0.2-1.4-0.2c-0.2-0.5,0.1-1.1,0.7-1.5
			C88.6,5.6,89.3,5.7,89.4,6.2"/>
		<path fill="#FFFFFF" d="M72.7,10.9c0-1.6-1.1-2.3-2.2-2.3c-0.7,0-1.4,0.3-1.9,1h0V5.9h-1.9v8.9h1.9v-3.8c0.4-0.6,0.8-0.9,1.3-0.9
			c0.6,0,1,0.4,1,1.3v2.1c0.6-0.3,1.3-0.5,1.9-0.6V10.9"/>
		<path fill="#FFFFFF" d="M77.5,8.6c-0.8,0-1.4,0.3-2,1V8.7h-1.9v4.1c0.7,0.1,1.5,0.4,1.9,0.9v-2.8c0.5-0.7,0.9-1,1.3-1
			c0.5,0,0.9,0.4,0.9,1.2v3.7h1.9v-3.8C79.7,9.2,78.4,8.6,77.5,8.6"/>
		<polygon fill="#FFFFFF" points="80.7,16.5 78.5,16.5 78.5,18 80.6,18 80.6,18.7 78.5,18.7 78.5,20.3 80.8,20.3 80.8,21 77.8,21 
			77.8,15.8 80.7,15.8 		"/>
		<rect x="82.5" y="15.8" fill="#FFFFFF" width="0.7" height="5.2"/>
		<path fill="#FFFFFF" d="M85.6,19.4H88c0-1.3-0.6-1.9-1.5-1.9c-0.9,0-1.6,0.7-1.6,1.7c0,0.9,0.6,1.8,1.7,1.8c0.6,0,1-0.1,1.4-0.4
			V20c-0.4,0.3-0.8,0.4-1.2,0.4C86.1,20.4,85.7,20.1,85.6,19.4 M86.5,18.1c0.5,0,0.8,0.3,0.8,0.8h-1.7C85.7,18.4,86,18.1,86.5,18.1"
			/>
		<path fill="#FFFFFF" d="M92.4,18.5c-0.4-0.3-0.6-0.3-0.9-0.3c-0.6,0-1,0.5-1,1.2c0,0.7,0.5,1.1,1.2,1.1c0.3,0,0.6-0.1,0.9-0.2v0.7
			c-0.2,0.1-0.7,0.2-1,0.2c-1,0-1.7-0.7-1.7-1.7c0-1.1,0.6-1.8,1.7-1.8c0.4,0,0.7,0.1,1,0.2V18.5"/>
		<path fill="#FFFFFF" d="M95.5,17.6h1.1v0.6h-1.1v1.8c0,0.4,0.3,0.5,0.5,0.5c0.2,0,0.5-0.1,0.8-0.3v0.6c-0.2,0.1-0.6,0.2-0.8,0.2
			c-0.7,0-1.1-0.5-1.1-1.1v-1.8h-0.6v-0.1l1.3-1.2V17.6"/>
		<path fill="#FFFFFF" d="M99.1,17.6v0.8h0c0.3-0.6,0.7-0.9,1-0.9c0.3,0,0.5,0.1,0.8,0.4l-0.4,0.6c-0.2-0.2-0.5-0.3-0.6-0.3
			c-0.5,0-0.8,0.5-0.8,1.1V21h-0.7v-3.4H99.1"/>
		<path fill="#FFFFFF" d="M107.9,18.5c-0.4-0.3-0.6-0.3-0.9-0.3c-0.6,0-1,0.5-1,1.2c0,0.7,0.5,1.1,1.2,1.1c0.3,0,0.6-0.1,0.9-0.2
			v0.7c-0.2,0.1-0.7,0.2-1,0.2c-1,0-1.7-0.7-1.7-1.7c0-1.1,0.7-1.8,1.7-1.8c0.4,0,0.7,0.1,1,0.2V18.5"/>
		<rect x="102.7" y="17.6" fill="#FFFFFF" width="0.7" height="3.4"/>
		<path fill="#FFFFFF" d="M103.4,16.4c0.1,0.2,0,0.4-0.3,0.5c-0.2,0.1-0.4,0.1-0.5-0.1c-0.1-0.2,0.1-0.4,0.3-0.5
			C103.2,16.1,103.4,16.2,103.4,16.4"/>
		<path fill="#FFFFFF" d="M73.7,18l0.2-0.7h1.9c0.2-1.1,0-2.1-0.6-2.7c-1.3-1.3-4.1-0.9-6.1,1.1c-0.3,0.3-0.6,0.6-0.8,1h1.1L69,17.4
			h-1.3c-0.1,0.2-0.2,0.5-0.3,0.7h1.6l-0.3,0.7h-1.6C66.8,20,67,21,67.7,21.7c1.3,1.3,4.1,0.8,6.1-1.1c0.4-0.3,0.7-0.7,0.9-1.1h-1.4
			l0.2-0.7h1.7c0.1-0.2,0.2-0.5,0.3-0.7H73.7 M73.3,16.6c-0.1,0-0.2,0-0.2,0.1c0,0,0,0,0,0.1l-0.6,2.3c-0.1,0.8-1.1,1.6-2.4,1.6
			h-0.7h-1.1l0.3-1.2h1.1c0.1,0,0.2,0,0.3-0.1c0,0,0.1-0.1,0.1-0.1l0.5-2c0.1-0.8,1-1.7,2.3-1.7h1.8l-0.2,1.1H73.3z"/>
	</g>
	<rect x="46.1" fill="#FFFFFF" width="0.4" height="22.7"/>
</g>
</svg>
