<!-- Generator: Adobe Illustrator 19.1.0, SVG Export Plug-In  -->
<svg version="1.1"
	 xmlns="http://www.w3.org/2000/svg" xmlns:xlink="http://www.w3.org/1999/xlink" xmlns:a="http://ns.adobe.com/AdobeSVGViewerExtensions/3.0/"
	 x="0px" y="0px" width="32px" height="32px" viewBox="0 0 32 32" enable-background="new 0 0 32 32" xml:space="preserve">
<defs>
</defs>
<g>
	<circle class="background" cx="16" cy="16" r="16"/>
	<path class="icon" fill="#FFFFFF" d="M9,17.8l2.8,2.6l0.6,0.5c0,0,0.9,0.8,1.8-0.3c0.6-0.8,0.4-1.4-0.4-2.1c-0.3-0.3-0.7-0.6-1.2-1h9.7
		c1.2,0,1.7-0.6,1.7-1.4v-0.2c0-0.8-0.5-1.4-1.7-1.4h-9.7c0.4-0.4,0.9-0.7,1.1-1c0.8-0.7,1.1-1.2,0.4-2.1c-0.9-1.2-1.8-0.3-1.8-0.3
		l-0.6,0.5L9,14.1c-0.3,0.3-0.5,0.5-0.7,0.7C8.1,15.1,8,15.5,8,16c0,0.5,0.1,0.9,0.3,1.1C8.5,17.3,8.7,17.6,9,17.8 M8,16
		C8,15.9,8,15.9,8,16L8,16C8,16,8,16,8,16z"/>
</g>
</svg>
