<!-- Generator: Adobe Illustrator 19.1.0, SVG Export Plug-In  -->
<svg version="1.1"
	 xmlns="http://www.w3.org/2000/svg" xmlns:xlink="http://www.w3.org/1999/xlink" xmlns:a="http://ns.adobe.com/AdobeSVGViewerExtensions/3.0/"
	 x="0px" y="0px" width="32px" height="32px" viewBox="0 0 32 32" enable-background="new 0 0 32 32" xml:space="preserve">
<defs>
</defs>
<g>
	<circle class="background" cx="16" cy="16" r="16"/>
	<path class="icon" fill="#FFFFFF" d="M23,14.2l-2.8-2.6l-0.6-0.5c0,0-0.9-0.8-1.8,0.3c-0.6,0.8-0.4,1.4,0.4,2.1c0.3,0.3,0.7,0.6,1.2,1H9.7
		c-1.2,0-1.7,0.6-1.7,1.4v0.2c0,0.8,0.5,1.4,1.7,1.4h9.7c-0.4,0.4-0.9,0.7-1.1,1c-0.8,0.7-1.1,1.2-0.4,2.1c0.9,1.2,1.8,0.3,1.8,0.3
		l0.6-0.5l2.7-2.5c0.3-0.3,0.5-0.5,0.7-0.7c0.2-0.3,0.3-0.6,0.3-1.1c0-0.5-0.1-0.9-0.3-1.1C23.5,14.7,23.3,14.4,23,14.2 M24,16
		L24,16L24,16C24,16,24,16,24,16z"/>
</g>
</svg>
