<!-- Generator: Adobe Illustrator 19.1.0, SVG Export Plug-In  -->
<svg version="1.1"
	 xmlns="http://www.w3.org/2000/svg" xmlns:xlink="http://www.w3.org/1999/xlink" xmlns:a="http://ns.adobe.com/AdobeSVGViewerExtensions/3.0/"
	 x="0px" y="0px" width="27.2px" height="34.2px" viewBox="0 0 27.2 34.2" enable-background="new 0 0 27.2 34.2"
	 xml:space="preserve">
<defs>
</defs>
<path fill="#D7614D" d="M13.4,0.1c-1.7,0.4-3,1.6-3.7,3.2C9.1,4.4,9,5.6,9,6.7v0.5c-1.1-0.7-2.5-1-3.8-1.2c-2-0.2-3.7,0.4-4.8,1.6
	C0.3,7.7,0.2,7.9,0.2,8C0.1,8.4,0,8.8,0,9.2c0,0.9,0.3,1.8,0.9,2.7c0.9,1.4,2.5,2.5,4.1,3.3c-1.2,0.7-2.2,1.9-2.8,3
	c-0.4,0.9-0.7,1.9-0.7,2.8s0.2,1.8,0.7,2.6c0.1,0.2,0.3,0.4,0.6,0.4c2.5,0.7,4.8,0.4,6.9-1c1.7-1.2,3-3,3.7-5
	c0.1-0.3,0.1-0.5-0.1-0.8c-0.1-0.2-0.3-0.4-0.6-0.4c-0.7-0.2-1.2-0.9-1.2-1.7c0-1,0.7-1.8,1.7-1.8c0.5,0,1,0.2,1.3,0.5
	c0.4,0.4,0.5,0.8,0.5,1.3c0,0.7-0.4,1.2-0.9,1.6c-0.4,0.2-0.7,0.8-0.4,1.3c0.3,0.4,0.9,0.7,1.3,0.4c1.2-0.7,1.9-1.9,1.9-3.3
	c0-2.1-1.7-3.7-3.8-3.7c-1,0-1.9,0.4-2.6,1C10,13.1,9.6,14,9.6,15c0,1.3,0.7,2.5,1.6,3.1c-1.1,2.4-3.7,5-7.4,4.1
	c-0.2-0.4-0.3-0.9-0.3-1.3c0-0.7,0.2-1.3,0.4-1.9c1-1.8,2.8-3,4.1-3.1c0.5-0.1,0.8-0.5,0.8-1v-0.1c0-0.4-0.4-0.9-0.8-1
	c-1.8-0.2-4.4-1.5-5.5-3.2C2.2,10.2,2,9.7,2,9.2c0-0.1,0-0.3,0.1-0.4C2.9,8,4.2,8,5,8.1c2.2,0.1,4.2,1.3,4.8,2.3
	c0.3,0.4,0.9,0.6,1.3,0.4c0.3-0.2,0.5-0.5,0.5-0.9c0-0.1-0.1-0.3-0.1-0.4c-0.3-0.6-0.5-1.6-0.5-2.6c0-1,0.1-1.9,0.5-2.8
	c0.5-1,1.3-1.7,2.2-2c0.8,0.2,1.5,0.8,1.9,1.7c0.4,0.8,0.5,1.8,0.5,2.8c0,1.2-0.2,2.5-0.6,3.3c-0.1,0.1-0.1,0.3-0.1,0.4
	c0,0.3,0.1,0.5,0.4,0.7c0.3,0.3,0.8,0.3,1.2,0.1c2.4-1.6,5-2.9,8.2-0.8c-0.3,2.9-3.4,4.5-6.2,4.8c-0.5,0.1-0.9,0.4-0.9,0.9v0.1
	c0,0.4,0.2,0.7,0.7,0.9c2.6,0.9,3.9,2.8,3.9,5.4c0,0.3,0,0.5-0.1,0.8c-4,0.8-6.5-2-7.4-3.6c-0.1-0.3-0.4-0.5-0.7-0.5
	c-0.3-0.1-0.6,0.1-0.8,0.3c-0.7,0.7-1.7,2.4-1.7,4.3c0,0.5,0.1,1,0.2,1.6C10.5,25,8.1,25,6.3,26.7C6.2,26.8,6,27,6,27.3
	s0.1,0.5,0.2,0.7c0.1,0.1,3.4,3.6,8.6,2.7c0.3,0.5,0.7,1.5,0.9,2.6c0.1,0.5,0.6,0.9,1.1,0.8c0.5-0.1,0.9-0.6,0.8-1.1
	c-0.3-2.2-1.5-3.9-1.6-4c-0.2-0.4-0.7-0.5-1-0.4c-3,0.8-5.3-0.3-6.5-1.1c2.2-0.9,4.8,0.1,4.9,0.1c0.4,0.1,0.8,0,1.1-0.3
	c0.1-0.2,0.2-0.4,0.2-0.7c0-0.1-0.1-0.4-0.1-0.5c-0.6-0.9-0.7-1.7-0.7-2.5c0-0.7,0.1-1.3,0.4-1.8c1.6,2.1,4.9,4.4,9.4,3.1
	c0.4-0.1,0.7-0.4,0.7-0.8c0.1-0.6,0.1-1.2,0.1-1.8c0-1.4-0.3-2.8-0.9-3.9c-0.5-0.8-1.1-1.6-1.9-2.1c1-0.4,1.9-0.9,2.8-1.5
	c1.7-1.4,2.6-3.2,2.6-5.3c0-0.3-0.1-0.6-0.4-0.7c-3.3-2.5-6.3-2-8.8-0.8c0.1-0.5,0.1-1.1,0.1-1.6c0-1.3-0.2-2.5-0.7-3.6
	c-0.7-1.5-1.9-2.5-3.5-2.8C13.7,0,13.5,0,13.4,0.1"/>
</svg>
