<!-- Generator: Adobe Illustrator 19.1.0, SVG Export Plug-In  -->
<svg version="1.1"
	 xmlns="http://www.w3.org/2000/svg" xmlns:xlink="http://www.w3.org/1999/xlink" xmlns:a="http://ns.adobe.com/AdobeSVGViewerExtensions/3.0/"
	 x="0px" y="0px" width="14px" height="11.4px" viewBox="0 0 14 11.4" enable-background="new 0 0 14 11.4" xml:space="preserve">
<defs>
</defs>
<path id="twitter_1_" d="M14,1.3c-0.5,0.2-1.1,0.4-1.6,0.5c0.6-0.4,1-0.9,1.3-1.6c-0.6,0.3-1.2,0.6-1.8,0.7
	C11.3,0.3,10.5,0,9.7,0C8.1,0,6.8,1.3,6.8,2.9c0,0.2,0,0.4,0.1,0.7C4.5,3.4,2.4,2.3,1,0.5C0.7,0.9,0.6,1.4,0.6,2
	c0,1,0.5,1.9,1.3,2.4C1.4,4.3,0.9,4.2,0.6,4c0,0,0,0,0,0c0,1.4,1,2.6,2.3,2.8C2.6,6.9,2.4,7,2.1,7c-0.2,0-0.4,0-0.5-0.1
	c0.4,1.1,1.4,2,2.7,2c-1,0.8-2.2,1.2-3.6,1.2c-0.2,0-0.5,0-0.7,0c1.3,0.8,2.8,1.3,4.4,1.3c5.3,0,8.2-4.4,8.2-8.2c0-0.1,0-0.2,0-0.4
	C13.1,2.4,13.6,1.9,14,1.3z"/>
</svg>
