<!-- Generator: Adobe Illustrator 19.1.0, SVG Export Plug-In  -->
<svg version="1.1"
	 xmlns="http://www.w3.org/2000/svg" xmlns:xlink="http://www.w3.org/1999/xlink" xmlns:a="http://ns.adobe.com/AdobeSVGViewerExtensions/3.0/"
	 x="0px" y="0px" width="14px" height="8.9px" viewBox="0 0 14 8.9" enable-background="new 0 0 14 8.9" xml:space="preserve">
<defs>
</defs>
<g>
	<path d="M0,4.5C-0.1,2.2,1.9,0,4.2,0c1.2-0.1,2.3,0.4,3.2,1.1C7.1,1.5,6.7,1.9,6.3,2.3C5.5,1.8,4.6,1.4,3.7,1.8
		C2.2,2.2,1.3,3.9,1.8,5.4C2.3,6.9,4.1,7.7,5.5,7C6.3,6.8,6.8,6.1,7,5.4c-0.8,0-1.7,0-2.5,0c0-0.5,0-1,0-1.5c1.4,0,2.8,0,4.3,0
		c0.1,1.2-0.1,2.6-0.9,3.6C6.7,8.8,4.7,9.2,3,8.7C1.2,8.1,0,6.3,0,4.5z"/>
	<path fill="#FFFFFF" d="M11.5,2.5c0.4,0,0.8,0,1.3,0c0,0.4,0,0.8,0,1.3c0.4,0,0.8,0,1.3,0c0,0.4,0,0.8,0,1.3c-0.4,0-0.8,0-1.3,0
		c0,0.4,0,0.8,0,1.3c-0.4,0-0.8,0-1.3,0c0-0.4,0-0.8,0-1.3c-0.4,0-0.8,0-1.3,0c0-0.4,0-0.8,0-1.3c0.4,0,0.8,0,1.3,0
		C11.4,3.4,11.5,3,11.5,2.5z"/>
</g>
</svg>
