<!-- Generator: Adobe Illustrator 19.1.0, SVG Export Plug-In  -->
<svg version="1.1"
	 xmlns="http://www.w3.org/2000/svg" xmlns:xlink="http://www.w3.org/1999/xlink" xmlns:a="http://ns.adobe.com/AdobeSVGViewerExtensions/3.0/"
	 x="0px" y="0px" width="11.4px" height="11.3px" viewBox="0 0 11.4 11.3" enable-background="new 0 0 11.4 11.3"
	 xml:space="preserve">
<defs>
</defs>
<path d="M0.2,3.8h2.4v7.6H0.2V3.8z M1.4,0c0.8,0,1.4,0.6,1.4,1.4c0,0.8-0.6,1.4-1.4,1.4C0.6,2.7,0,2.1,0,1.4
	C0,0.6,0.6,0,1.4,0 M4,11.3h2.4V7.6c0-1,0.2-1.9,1.4-1.9C9,5.7,9,6.8,9,7.7v3.7h2.4V7.2c0-2-0.4-3.6-2.8-3.6c-1.1,0-1.9,0.6-2.2,1.2
	h0v-1H4V11.3z"/>
</svg>
