<svg style="display: none;"><symbol viewBox="0 0 12.5 12.5" id="shape-close"><title>close</title>  <polygon points="12.5,0.5 12,0 6.3,5.7 0.5,0 0,0.5 5.7,6.3 0,12 0.5,12.5 6.3,6.8 12,12.5 12.5,12 6.8,6.3 "/> </symbol><symbol viewBox="0 0 32 32" id="shape-flex-next"><title>flex-next</title>  <g> <circle class="background" cx="16" cy="16" r="16"/> <path class="icon" fill="#FFFFFF" d="M23,14.2l-2.8-2.6l-0.6-0.5c0,0-0.9-0.8-1.8,0.3c-0.6,0.8-0.4,1.4,0.4,2.1c0.3,0.3,0.7,0.6,1.2,1H9.7
		c-1.2,0-1.7,0.6-1.7,1.4v0.2c0,0.8,0.5,1.4,1.7,1.4h9.7c-0.4,0.4-0.9,0.7-1.1,1c-0.8,0.7-1.1,1.2-0.4,2.1c0.9,1.2,1.8,0.3,1.8,0.3
		l0.6-0.5l2.7-2.5c0.3-0.3,0.5-0.5,0.7-0.7c0.2-0.3,0.3-0.6,0.3-1.1c0-0.5-0.1-0.9-0.3-1.1C23.5,14.7,23.3,14.4,23,14.2 M24,16
		L24,16L24,16C24,16,24,16,24,16z"/> </g> </symbol><symbol viewBox="0 0 32 32" id="shape-flex-prev"><title>flex-prev</title>  <g> <circle class="background" cx="16" cy="16" r="16"/> <path class="icon" fill="#FFFFFF" d="M9,17.8l2.8,2.6l0.6,0.5c0,0,0.9,0.8,1.8-0.3c0.6-0.8,0.4-1.4-0.4-2.1c-0.3-0.3-0.7-0.6-1.2-1h9.7
		c1.2,0,1.7-0.6,1.7-1.4v-0.2c0-0.8-0.5-1.4-1.7-1.4h-9.7c0.4-0.4,0.9-0.7,1.1-1c0.8-0.7,1.1-1.2,0.4-2.1c-0.9-1.2-1.8-0.3-1.8-0.3
		l-0.6,0.5L9,14.1c-0.3,0.3-0.5,0.5-0.7,0.7C8.1,15.1,8,15.5,8,16c0,0.5,0.1,0.9,0.3,1.1C8.5,17.3,8.7,17.6,9,17.8 M8,16
		C8,15.9,8,15.9,8,16L8,16C8,16,8,16,8,16z"/> </g> </symbol><symbol viewBox="0 0 27.2 34.2" id="shape-flor"><title>flor</title>  <path fill="#D7614D" d="M13.4,0.1c-1.7,0.4-3,1.6-3.7,3.2C9.1,4.4,9,5.6,9,6.7v0.5c-1.1-0.7-2.5-1-3.8-1.2c-2-0.2-3.7,0.4-4.8,1.6
	C0.3,7.7,0.2,7.9,0.2,8C0.1,8.4,0,8.8,0,9.2c0,0.9,0.3,1.8,0.9,2.7c0.9,1.4,2.5,2.5,4.1,3.3c-1.2,0.7-2.2,1.9-2.8,3
	c-0.4,0.9-0.7,1.9-0.7,2.8s0.2,1.8,0.7,2.6c0.1,0.2,0.3,0.4,0.6,0.4c2.5,0.7,4.8,0.4,6.9-1c1.7-1.2,3-3,3.7-5
	c0.1-0.3,0.1-0.5-0.1-0.8c-0.1-0.2-0.3-0.4-0.6-0.4c-0.7-0.2-1.2-0.9-1.2-1.7c0-1,0.7-1.8,1.7-1.8c0.5,0,1,0.2,1.3,0.5
	c0.4,0.4,0.5,0.8,0.5,1.3c0,0.7-0.4,1.2-0.9,1.6c-0.4,0.2-0.7,0.8-0.4,1.3c0.3,0.4,0.9,0.7,1.3,0.4c1.2-0.7,1.9-1.9,1.9-3.3
	c0-2.1-1.7-3.7-3.8-3.7c-1,0-1.9,0.4-2.6,1C10,13.1,9.6,14,9.6,15c0,1.3,0.7,2.5,1.6,3.1c-1.1,2.4-3.7,5-7.4,4.1
	c-0.2-0.4-0.3-0.9-0.3-1.3c0-0.7,0.2-1.3,0.4-1.9c1-1.8,2.8-3,4.1-3.1c0.5-0.1,0.8-0.5,0.8-1v-0.1c0-0.4-0.4-0.9-0.8-1
	c-1.8-0.2-4.4-1.5-5.5-3.2C2.2,10.2,2,9.7,2,9.2c0-0.1,0-0.3,0.1-0.4C2.9,8,4.2,8,5,8.1c2.2,0.1,4.2,1.3,4.8,2.3
	c0.3,0.4,0.9,0.6,1.3,0.4c0.3-0.2,0.5-0.5,0.5-0.9c0-0.1-0.1-0.3-0.1-0.4c-0.3-0.6-0.5-1.6-0.5-2.6c0-1,0.1-1.9,0.5-2.8
	c0.5-1,1.3-1.7,2.2-2c0.8,0.2,1.5,0.8,1.9,1.7c0.4,0.8,0.5,1.8,0.5,2.8c0,1.2-0.2,2.5-0.6,3.3c-0.1,0.1-0.1,0.3-0.1,0.4
	c0,0.3,0.1,0.5,0.4,0.7c0.3,0.3,0.8,0.3,1.2,0.1c2.4-1.6,5-2.9,8.2-0.8c-0.3,2.9-3.4,4.5-6.2,4.8c-0.5,0.1-0.9,0.4-0.9,0.9v0.1
	c0,0.4,0.2,0.7,0.7,0.9c2.6,0.9,3.9,2.8,3.9,5.4c0,0.3,0,0.5-0.1,0.8c-4,0.8-6.5-2-7.4-3.6c-0.1-0.3-0.4-0.5-0.7-0.5
	c-0.3-0.1-0.6,0.1-0.8,0.3c-0.7,0.7-1.7,2.4-1.7,4.3c0,0.5,0.1,1,0.2,1.6C10.5,25,8.1,25,6.3,26.7C6.2,26.8,6,27,6,27.3
	s0.1,0.5,0.2,0.7c0.1,0.1,3.4,3.6,8.6,2.7c0.3,0.5,0.7,1.5,0.9,2.6c0.1,0.5,0.6,0.9,1.1,0.8c0.5-0.1,0.9-0.6,0.8-1.1
	c-0.3-2.2-1.5-3.9-1.6-4c-0.2-0.4-0.7-0.5-1-0.4c-3,0.8-5.3-0.3-6.5-1.1c2.2-0.9,4.8,0.1,4.9,0.1c0.4,0.1,0.8,0,1.1-0.3
	c0.1-0.2,0.2-0.4,0.2-0.7c0-0.1-0.1-0.4-0.1-0.5c-0.6-0.9-0.7-1.7-0.7-2.5c0-0.7,0.1-1.3,0.4-1.8c1.6,2.1,4.9,4.4,9.4,3.1
	c0.4-0.1,0.7-0.4,0.7-0.8c0.1-0.6,0.1-1.2,0.1-1.8c0-1.4-0.3-2.8-0.9-3.9c-0.5-0.8-1.1-1.6-1.9-2.1c1-0.4,1.9-0.9,2.8-1.5
	c1.7-1.4,2.6-3.2,2.6-5.3c0-0.3-0.1-0.6-0.4-0.7c-3.3-2.5-6.3-2-8.8-0.8c0.1-0.5,0.1-1.1,0.1-1.6c0-1.3-0.2-2.5-0.7-3.6
	c-0.7-1.5-1.9-2.5-3.5-2.8C13.7,0,13.5,0,13.4,0.1"/> </symbol><symbol viewBox="0 0 6.8 14" id="shape-icon-facebook"><title>icon-facebook</title>  <path id="icon-facebook-facebook_2_" d="M1.7,14V7.4H0V5.1h1.7c0,0,0-1,0-2c0-1.6,1-3,3.4-3c1,0,1.7,0.1,1.7,0.1L6.7,2.3
	c0,0-0.7,0-1.5,0c-0.9,0-1,0.4-1,1c0,0.5,0-1.1,0,1.7h2.6L6.7,7.4H4.2V14H1.7z"/> </symbol><symbol viewBox="0 0 14 8.9" id="shape-icon-gplus"><title>icon-gplus</title>  <g> <path d="M0,4.5C-0.1,2.2,1.9,0,4.2,0c1.2-0.1,2.3,0.4,3.2,1.1C7.1,1.5,6.7,1.9,6.3,2.3C5.5,1.8,4.6,1.4,3.7,1.8
		C2.2,2.2,1.3,3.9,1.8,5.4C2.3,6.9,4.1,7.7,5.5,7C6.3,6.8,6.8,6.1,7,5.4c-0.8,0-1.7,0-2.5,0c0-0.5,0-1,0-1.5c1.4,0,2.8,0,4.3,0
		c0.1,1.2-0.1,2.6-0.9,3.6C6.7,8.8,4.7,9.2,3,8.7C1.2,8.1,0,6.3,0,4.5z"/> <path fill="#FFFFFF" d="M11.5,2.5c0.4,0,0.8,0,1.3,0c0,0.4,0,0.8,0,1.3c0.4,0,0.8,0,1.3,0c0,0.4,0,0.8,0,1.3c-0.4,0-0.8,0-1.3,0
		c0,0.4,0,0.8,0,1.3c-0.4,0-0.8,0-1.3,0c0-0.4,0-0.8,0-1.3c-0.4,0-0.8,0-1.3,0c0-0.4,0-0.8,0-1.3c0.4,0,0.8,0,1.3,0
		C11.4,3.4,11.5,3,11.5,2.5z"/> </g> </symbol><symbol viewBox="0 0 11.4 11.3" id="shape-icon-linkedin"><title>icon-linkedin</title>  <path d="M0.2,3.8h2.4v7.6H0.2V3.8z M1.4,0c0.8,0,1.4,0.6,1.4,1.4c0,0.8-0.6,1.4-1.4,1.4C0.6,2.7,0,2.1,0,1.4
	C0,0.6,0.6,0,1.4,0 M4,11.3h2.4V7.6c0-1,0.2-1.9,1.4-1.9C9,5.7,9,6.8,9,7.7v3.7h2.4V7.2c0-2-0.4-3.6-2.8-3.6c-1.1,0-1.9,0.6-2.2,1.2
	h0v-1H4V11.3z"/> </symbol><symbol viewBox="0 0 14 11.4" id="shape-icon-twitter"><title>icon-twitter</title>  <path id="icon-twitter-twitter_1_" d="M14,1.3c-0.5,0.2-1.1,0.4-1.6,0.5c0.6-0.4,1-0.9,1.3-1.6c-0.6,0.3-1.2,0.6-1.8,0.7
	C11.3,0.3,10.5,0,9.7,0C8.1,0,6.8,1.3,6.8,2.9c0,0.2,0,0.4,0.1,0.7C4.5,3.4,2.4,2.3,1,0.5C0.7,0.9,0.6,1.4,0.6,2
	c0,1,0.5,1.9,1.3,2.4C1.4,4.3,0.9,4.2,0.6,4c0,0,0,0,0,0c0,1.4,1,2.6,2.3,2.8C2.6,6.9,2.4,7,2.1,7c-0.2,0-0.4,0-0.5-0.1
	c0.4,1.1,1.4,2,2.7,2c-1,0.8-2.2,1.2-3.6,1.2c-0.2,0-0.5,0-0.7,0c1.3,0.8,2.8,1.3,4.4,1.3c5.3,0,8.2-4.4,8.2-8.2c0-0.1,0-0.2,0-0.4
	C13.1,2.4,13.6,1.9,14,1.3z"/> </symbol><symbol viewBox="0 0 32.4 32.4" id="shape-play"><title>play</title>  <g> <circle fill="none" stroke-width="2" stroke-miterlimit="10" cx="16.2" cy="16.2" r="15.2"/> <path stroke="none" d="M10.2,21.9V10.5c0-0.3,0.3-0.4,0.5-0.3L22,15.9c0.2,0.1,0.2,0.5,0,0.6l-11.4,5.7
		C10.4,22.3,10.2,22.1,10.2,21.9z"/> </g> </symbol></svg>